<svg width="70" height="54" viewBox="0 0 70 54" fill="none" xmlns="http://www.w3.org/2000/svg"><g clip-path="url(#clip0_129_705)"><path fill-rule="evenodd" clip-rule="evenodd" d="M12.563 0H57.437C61.8054 0 63.3895 0.454846 64.9865 1.30895C66.5836 2.16305 67.8369 3.41642 68.691 5.01346C69.5452 6.61049 70 8.1946 70 12.563V41.437C70 45.8054 69.5452 47.3895 68.691 48.9865C67.8369 50.5836 66.5836 51.8369 64.9865 52.6911C63.3895 53.5452 61.8054 54 57.437 54H12.563C8.1946 54 6.61049 53.5452 5.01346 52.6911C3.41642 51.8369 2.16305 50.5836 1.30895 48.9865C0.454846 47.3895 0 45.8054 0 41.437V12.563C0 8.1946 0.454846 6.61049 1.30895 5.01346C2.16305 3.41642 3.41642 2.16305 5.01346 1.30895C6.61049 0.454846 8.1946 0 12.563 0Z" fill="#FF4B4B"/><path fill-rule="evenodd" clip-rule="evenodd" d="M0 15.4286H70V38.5714H0V15.4286Z" fill="#FFC800"/><path fill-rule="evenodd" clip-rule="evenodd" d="M27.2222 21.2142C28.2961 21.2142 29.1666 22.0848 29.1666 23.1587V30.8412C29.1666 31.9151 28.2961 32.7857 27.2222 32.7857C26.1483 32.7857 25.2777 31.9151 25.2777 30.8412V23.1587C25.2777 22.0848 26.1483 21.2142 27.2222 21.2142Z" fill="white"/><path fill-rule="evenodd" clip-rule="evenodd" d="M7.77776 21.2142C8.85164 21.2142 9.7222 22.0848 9.7222 23.1587V30.8412C9.7222 31.9151 8.85164 32.7857 7.77776 32.7857C6.70387 32.7857 5.83331 31.9151 5.83331 30.8412V23.1587C5.83331 22.0848 6.70387 21.2142 7.77776 21.2142Z" fill="white"/><path fill-rule="evenodd" clip-rule="evenodd" d="M13.4167 19.2858H21.5834C22.5499 19.2858 23.3334 20.0693 23.3334 21.0358V28.881C23.3334 32.1027 20.7217 34.7143 17.5 34.7143C14.2784 34.7143 11.6667 32.1027 11.6667 28.881V21.0358C11.6667 20.0693 12.4502 19.2858 13.4167 19.2858Z" fill="#FF4B4B"/></g><defs><clipPath id="clip0_129_705"><rect width="70" height="54" fill="white"/></clipPath></defs></svg>